<?xml version="1.0" standalone="no"?><!DOCTYPE svg PUBLIC "-//W3C//DTD SVG 1.1//EN" "http://www.w3.org/Graphics/SVG/1.1/DTD/svg11.dtd"><svg t="1705998688018" class="icon" viewBox="0 0 1024 1024" version="1.1" xmlns="http://www.w3.org/2000/svg" p-id="1897" xmlns:xlink="http://www.w3.org/1999/xlink" width="200" height="200"><path d="M512 30.08C246.976 30.08 30.08 247.04 30.08 512S247.04 993.92 512 993.92 993.92 776.96 993.92 512 776.96 30.08 512 30.08z m0 903.552c-231.936 0-421.632-189.696-421.632-421.632S280.064 90.368 512 90.368 933.632 280.064 933.632 512 743.936 933.632 512 933.632z" fill="#707070" opacity=".85" p-id="1898"></path><path d="M256 768l382.464-126.464 126.528-382.528-382.528 126.528L256 768z m415.616-415.616L602.368 560.192 463.808 421.632l207.808-69.248zM560.192 602.368l-207.808 69.248 69.248-207.808 138.56 138.56z" fill="#707070" opacity=".85" p-id="1899"></path></svg>