<?xml version="1.0" standalone="no"?><!DOCTYPE svg PUBLIC "-//W3C//DTD SVG 1.1//EN" "http://www.w3.org/Graphics/SVG/1.1/DTD/svg11.dtd"><svg t="1705998773283" class="icon" viewBox="0 0 1024 1024" version="1.1" xmlns="http://www.w3.org/2000/svg" p-id="5209" xmlns:xlink="http://www.w3.org/1999/xlink" width="200" height="200"><path d="M448.465455 527.197091c0 41.751273 33.931636 78.266182 78.289454 78.266182 44.334545 0 78.242909-33.908364 78.242909-78.266182 0-41.728-33.908364-78.266182-78.242909-78.266182-41.751273 0-78.266182 33.908364-78.266182 78.266182z" fill="#8a8a8a" p-id="5210"></path><path d="M511.813818 0.930909C230.050909 0.930909 0.465455 230.493091 0.465455 512.256s229.585455 511.348364 511.32509 511.348364c281.762909 0 511.325091-229.585455 511.325091-511.348364C1025.768727 230.493091 796.183273 0.930909 511.837091 0.930909h-0.023273z m232.168727 305.221818l-104.331636 318.277818a31.511273 31.511273 0 0 1-18.269091 18.269091l-318.277818 104.378182c-7.819636 2.583273-18.245818 2.583273-20.875636-2.629818-5.213091-5.213091-7.819636-13.032727-2.606546-20.852364L384 405.294545c2.583273-7.819636 10.402909-15.662545 18.245818-18.245818l318.277818-104.378182c7.842909-2.606545 18.245818-2.606545 20.875637 2.606546 5.213091 5.236364 7.819636 13.056 2.606545 20.875636z" fill="#8a8a8a" p-id="5211"></path></svg>